<?xml version="1.0" encoding="UTF-8" standalone="no"?>
<!-- Created with Inkscape (http://www.inkscape.org/) -->

<svg
   width="500px"
   height="500px"
   viewBox="0 0 500 500"
   version="1.1"
   id="SVGRoot"
   xmlns="http://www.w3.org/2000/svg"
   xmlns:svg="http://www.w3.org/2000/svg">
  <defs
     id="defs824" />
  <g
     id="layer1">
    <path
       id="path2982"
       d="m 312.27603,496.33813 c -7.9465,-35.641 -14.109,-71.92 -14.376,-108.57 -0.40684,-34.123 -2.8909,-68.406 0.0384,-102.44 12.916,-9.3566 31.357,-9.662 44.359,-19.847 14.1,-11.489 27.218,-28.48 47.479,-26.833 14.878,4.0277 31.885,-9.1575 11.708,-17.693 -16.586,-5.1756 -36.264,-8.5153 -51.153,2.8068 -11.302,10.808 -32.147,12.823 -31.769,-7.9426 -2.2116,-28.433 -1.7065,-57.587 5.7118,-85.286 6.1e-4,-12.533 12.078,-45.026999 -9.401,-41.011999 -16.081,9.316699 -11.806,32.279999 -19.452,47.371999 -1.5448,4.2266 -10.226,32.066 -8.9127,17.612 1.468,-25.218 4.2574,-50.334 9.4082,-75.105999 8.9572,-15.983 -10.973,-29.37 -20.66,-13.083 -5.4549,16.549 -7.7568,34.161999 -12.562,51.001999 -3.8714,7.362 -2.0391,34.136 -6.838,31.406 -3.337,-26.313 0.30879,-52.845999 -0.0812,-79.181999 -12.43,-16.658 -26.638,9.0598 -25.567,21.95 -2.7122,23.106999 -3.2671,46.396999 -4.6127,69.610999 -10.031,17.542 -19.808,-1.5901 -23.164,-12.982 -7.9149,-14.457 -5.4069,-36.368 -19.637,-45.921 -20.809,0.35164 -13.368,30.297 -7.8513,42.887 7.1882,16.862 17.131,33.967 13.79,53.055 -0.23003,23.878 0.10149,49.013 12.385,70.302 7.4583,15.723 18.133,32.278 12.117,50.367 -7.5512,59.838 -10.96,120.1 -15.503,180.22 h 114.54 v -2.6861 z" />
    <path
       id="path2982-0"
       d="m 320.27603,496.33813 c -9.12985,-35.641 -16.21003,-71.92 -16.51679,-108.57 -0.46742,-34.123 -3.32139,-42.31654 0.0441,-76.35054 l -53.94661,7.25822 -43.36974,0.13552 c -8.67568,59.838 -12.59209,120.1 -17.81161,180.22 h 131.59661 v -2.6861 z"
       style="fill:#000080;stroke-width:1.07187" />
  </g>
</svg>
