<?xml version="1.0" encoding="UTF-8" standalone="no"?>
<!-- Created with Inkscape (http://www.inkscape.org/) -->

<svg
   width="500px"
   height="500px"
   viewBox="0 0 500 500"
   version="1.1"
   id="SVGRoot"
   xmlns="http://www.w3.org/2000/svg"
   xmlns:svg="http://www.w3.org/2000/svg">
  <defs
     id="defs824" />
  <g
     id="layer1">
    <path
       id="path2877"
       d="m 203.98928,487.91442 c -1.7073,-18.564 -2.3011,-37.255 -1.999,-55.98 -0.36414,-17.498 0.55604,-34.924 2.1307,-52.261 0.8449,-24.423 3.7507,-48.701 9.9659,-72.318 6.2933,-17.682 2.6046,-36.863 -6.8767,-52.687 -7.5016,-10.869 -12.388,-22.898 -16.405,-35.358 -2.6398,-13.621 -15.561,-13.893 -24.816,-21.053 -9.7494,-6.767 -28.421,-17.682 -20.754,-31.774 15.689,-8.5237 26.035,11.296 40.751,12.865 19.491,6.0642 -3.4173,-14.239 -7.8336,-20.605 -14.786,-6.2048 -4.3208,-28.265 10.364,-20.293 12.157,3.3055 19.96,15.887 30.393,21.284 10.265,2.6568 2.3528,-15.124 1.2982,-20.378 -7.0917,-8.0862 -17.49,-27.84599 1.6102,-27.99999 16.162,-1.5008 21.37,15.28999 28.171,25.99999 8.4536,17.794 6.9893,-13.196 2.9559,-19.568 -8.098,-20.420995 22.944,-19.189995 25.249,-2.4318 8.5394,12.23 3.9542,28.149 10.679,41.483 3.9644,10.465 17.153,19.716 25.335,7.958 9.3574,-6.3892 14.942,-17.114 26.302,-21.652 11.542,-2.7923 36.336,-6.2756 31.958,13.207 -12.717,2.5809 -22.759,11.07 -30.009,22.399 -10.515,10.632 -14.661,25.07 -23.833,36.459 -6.7453,11.938 -17.605,20.994 -21.782,33.831 -4.0064,15.748 -3.6954,32.864 -1.2397,49.088 2.3546,56.672 0.94422,113.48 3.9035,170.11 2.3219,10.181 1.8513,20.739 2.5328,31.116 h -98.051 c 1.7e-4,-3.8136 -3.4e-4,-7.6278 2.5e-4,-11.441 z" />
  </g>
</svg>
