<?xml version="1.0" encoding="UTF-8" standalone="no"?>
<!-- Created with Inkscape (http://www.inkscape.org/) -->

<svg
   width="500px"
   height="500px"
   viewBox="0 0 500 500"
   version="1.1"
   id="SVGRoot"
   xmlns="http://www.w3.org/2000/svg"
   xmlns:svg="http://www.w3.org/2000/svg">
  <defs
     id="defs824" />
  <g
     id="layer1">
    <path
       id="path3333"
       d="m 212.31152,457.62867 c -0.21135,-22.613 1.8249,-45.063 2.8877,-67.586 2.8663,-16.027 0.15544,-32.743 3.2509,-48.77 0.69205,-15.433 -0.13029,-30.875 -2.8506,-45.895 -1.9644,-14.771 -19.044,-20.321 -27.752,-31.331 -10.279,-13.087 -25.77,-19.078 -38.5,-28.439 -9.8866,-11.28 -34.738,-12.432 -35.874,-28.254 12.82,-14.56 37.112,-9.8808 50.781,1.0237 10.596,5.4997 29.38,16.411 35.526,-0.97187 3.7956,-8.6084 6.0142,-18.38 1.138,-27.141 -4.567,-10.973 -8.019,-23.089 -11.53,-34.796 -4.1094,-11.894 -5.573,-23.601 -9.7193,-35.548 -4.2011,-11.027996 -4.3009,-22.829996 -4.07,-34.542996 11.154,-1.9222 23.113,4.6154 24.294,16.346 4.2892,9.732496 7.0316,19.787996 11.706,29.153996 4.9185,8.9026 9.2312,19.777 14.725,28.047 -3.3434,-23.798 -0.3578,-48.813 -4.6461,-72.683996 -6.7377,-18.638 23.254,-22.396 23.627,-4.5406 3.2136,15.362 2.4956,31.679996 7,46.715996 5.0251,10.199 -0.22682,32.68 9.9624,35.647 3.6033,-13.898 8.1609,-27.107 11.2,-41.104 5.3592,-11.697 0.2097,-38.054996 19.089,-35.531996 14.02,7.2398 2.3883,30.533996 3.9684,43.976996 -2.7745,15.655 -3.334,31.818 -8.1332,46.781 5.4526,9.1619 14.684,-15.128 21.207,-20.467 8.2004,-9.6046 10.895,-22.132 18.781,-30.954 20.511,-6.0282 15.221,20.666 7.44,30.541 -6.1234,13.384 -13.124,26.515 -21.295,39.073 -5.7284,15.138 -6.777,31.901 -9.194,48.062 -3.6883,13.449 -5.628,27.625 -9.7206,40.938 -8.7426,14.176 1.4207,30.031 1.2536,45.238 3.6673,16.6 4.0569,33.925 6.8099,50.554 2.9313,16.462 4.8265,33.164 9.656,48.926 2.5125,12.386 9.487,22.571 9.9377,35.522 2.0617,14.655 4.9507,29.185 7.4899,43.761 h -118.98 c 0.1772,-13.917 0.35427,-27.833 0.53155,-41.75 z" />
  </g>
</svg>
