<?xml version="1.0" encoding="UTF-8" standalone="no"?>
<!-- Created with Inkscape (http://www.inkscape.org/) -->

<svg
   width="500px"
   height="500px"
   viewBox="0 0 500 500"
   version="1.1"
   id="SVGRoot"
   xmlns="http://www.w3.org/2000/svg"
   xmlns:svg="http://www.w3.org/2000/svg">
  <defs
     id="defs824" />
  <g
     id="layer1">
    <path
       id="path3333"
       d="m 212.31152,457.62867 c -0.21135,-22.613 1.8249,-45.063 2.8877,-67.586 2.8663,-16.027 0.15544,-32.743 3.2509,-48.77 0.69205,-15.433 -0.13029,-30.875 -2.8506,-45.895 -1.9644,-14.771 -19.044,-20.321 -27.752,-31.331 -10.279,-13.087 -18.49299,-13.62024 -31.22299,-22.98124 -9.8866,-11.28 -22.91286,-15.16088 -29.50662,-35.53101 12.82,-14.56 30.74462,-2.60379 44.41362,8.30071 10.596,5.4997 22.10299,10.95324 28.24899,-6.42963 3.7956,-8.6084 6.0142,-18.38 1.138,-27.141 -4.567,-10.973 -4.61918,-14.01639 -8.13018,-25.72339 -4.1094,-11.894 -5.573,-23.601 -9.7193,-35.548 -4.2011,-11.02799 -0.6624,-15.55298 -0.4315,-27.265982 11.154,-1.9222 19.4745,-2.66161 20.6555,9.068992 4.2892,9.73249 7.0316,19.78799 11.706,29.15399 4.9185,8.9026 9.2312,19.777 14.725,28.047 -3.3434,-23.798 -4.6461,-72.683992 -4.6461,-72.683992 0,0 15.198,-9.947534 22.71737,-4.5406 7.51937,5.406934 3.40523,31.679992 7.90963,46.715992 5.0251,10.199 -0.22682,32.68 9.9624,35.647 3.6033,-13.898 8.1609,-27.107 11.2,-41.104 0,0 -2.51918,-28.95873 16.36012,-26.43573 26.75477,1.782043 5.11718,21.43773 6.69728,34.88073 -2.7745,15.655 -6.73382,22.74539 -11.53302,37.70839 5.4526,9.1619 13.53569,-7.87464 20.05869,-13.21364 8.2004,-9.6046 6.34687,-16.67425 14.23287,-25.49625 20.511,-6.0282 19.76913,8.80654 8.34962,24.17362 -6.1234,13.384 -8.33718,20.17127 -16.50818,32.72927 -5.7284,15.138 -6.777,31.901 -9.194,48.062 -3.6883,13.449 -5.628,27.625 -9.7206,40.938 -8.7426,14.176 1.4207,30.031 1.2536,45.238 3.6673,16.6 4.0569,33.925 6.8099,50.554 2.9313,16.462 4.8265,33.164 9.656,48.926 2.5125,12.386 9.487,22.571 9.9377,35.522 2.0617,14.655 4.9507,29.185 7.4899,43.761 h -118.98 c 0.1772,-13.917 0.35427,-27.833 0.53155,-41.75 z" />
  </g>
</svg>
