<?xml version="1.0" encoding="UTF-8" standalone="no"?>
<!-- Created with Inkscape (http://www.inkscape.org/) -->

<svg
   width="500px"
   height="500px"
   viewBox="0 0 500 500"
   version="1.1"
   id="SVGRoot"
   xmlns="http://www.w3.org/2000/svg"
   xmlns:svg="http://www.w3.org/2000/svg">
  <defs
     id="defs824" />
  <g
     id="layer1">
    <path
       id="path3333"
       d="m 212.31152,457.62867 c -0.21135,-22.613 1.8249,-45.063 2.8877,-67.586 2.8663,-16.027 0.15544,-32.743 3.2509,-48.77 0.69205,-15.433 -2.13029,-36.875 -4.8506,-51.895 -1.9644,-14.771 -17.044,-14.321 -25.752,-25.331 -10.279,-13.087 -25.77,-19.078 -38.5,-28.439 -9.8866,-11.28 -28.52634,-11.48491 -17.874,-30.254 12.82,-14.56 21.112,-3.8808 34.781,7.0237 10.596,5.4997 26.64278,13.22669 29.526,-4.97187 3.7956,-8.6084 8.0142,-18.38 3.138,-27.141 -4.567,-10.973 -8.019,-33.089 -11.53,-44.796 -4.1094,-11.894 -7.573,-11.601 -11.7193,-23.548 0,0 -5.0646,-14.837436 0.4675,-22.722164 11.154,-1.9222 24.5755,-5.205432 25.7565,6.525168 4.2892,9.732496 7.0316,19.787996 11.706,29.153996 4.9185,8.9026 7.2312,19.777 12.725,28.047 -3.3434,-23.798 -0.3578,-40.813 -4.6461,-64.683996 0.19465,-13.092121 19.70812,-15.086845 25.627,-6.5406 3.2136,15.362 0.4956,21.679996 5,36.715996 5.0251,10.199 -0.22682,34.68 9.9624,37.647 3.6033,-13.898 8.1609,-29.107 11.2,-43.104 5.3592,-11.697 -1.7903,-28.054996 17.089,-25.531996 20.89653,7.2398 4.3883,20.533996 5.9684,33.976996 -2.7745,15.655 -3.334,31.818 -8.1332,46.781 5.4526,9.1619 14.684,-15.128 21.207,-20.467 8.2004,-9.6046 4.895,-12.132 12.781,-20.954 19.52864,3.79542 17.221,16.666 9.44,26.541 -6.1234,13.384 -11.124,26.515 -19.295,39.073 -5.7284,15.138 -2.777,25.901 -5.194,42.062 -3.6883,13.449 -11.628,27.625 -15.7206,40.938 -8.7426,14.176 5.4207,30.031 5.2536,45.238 3.6673,16.6 4.0569,33.925 6.8099,50.554 2.9313,16.462 4.8265,33.164 9.656,48.926 2.5125,12.386 9.487,22.571 9.9377,35.522 2.0617,14.655 4.9507,29.185 7.4899,43.761 h -118.98 c 0.1772,-13.917 0.35427,-27.833 0.53155,-41.75 z" />
  </g>
</svg>
